<svg xmlns="http://www.w3.org/2000/svg" width="613.731" height="621.127" viewBox="0 0 613.731 621.127">
  <g id="Group_192" data-name="Group 192" transform="translate(-203 -112)" opacity="0.1">
    <g id="Group_76" data-name="Group 76" transform="translate(203 112)">
      <g id="Group_74" data-name="Group 74">
        <path id="Path_37" data-name="Path 37" d="M479.124-176.351a69.695,69.695,0,0,1,69.7,69.7,69.693,69.693,0,0,1-69.7,69.691,69.688,69.688,0,0,1-69.691-69.691,69.689,69.689,0,0,1,69.691-69.7" transform="translate(-218.156 176.351)" fill="#7f7f7f"/>
        <path id="Path_38" data-name="Path 38" d="M880.435-117.424a62.044,62.044,0,0,0-18-8.453q-9.243-1.377-18.493-2.387A460.56,460.56,0,0,0,674.287-114.74L634.218-65.452a60.8,60.8,0,0,1-4.416,6.286,60.219,60.219,0,0,1-41.07,22.011A60.2,60.2,0,0,1,544.04-50.313c-1.394-1.132-2.615-2.387-3.864-3.616A457.231,457.231,0,0,0,416.54,68.182c-2.077,3.022-4.009,6.1-5.955,9.163-1.152,1.4-2.284,2.836-3.333,4.361a60.5,60.5,0,0,0,99.755,68.477l.276.193c2.415-3.816,4.823-7.632,7.4-11.378C588.435,31.556,713.3-19.78,834.286-4.959c1.994.248,3.975.49,5.955.766a62.111,62.111,0,0,0,56.277-26.745A62.2,62.2,0,0,0,880.435-117.424Z" transform="translate(-293.712 444.683)" fill="#7f7f7f"/>
        <path id="Path_39" data-name="Path 39" d="M900.979-70.353a60.424,60.424,0,0,0-8.487-85.037,60.424,60.424,0,0,0-85.037,8.487L660.255,32.935l-179.838-147.2a60.432,60.432,0,0,0-85.037,8.487,60.431,60.431,0,0,0,8.488,85.037L624.533,159.877c.545.573,1.18,1.083,1.746,1.642A458.482,458.482,0,0,1,760.59,101.164Z" transform="translate(-381.713 219.368)" fill="#7f7f7f"/>
        <path id="Path_40" data-name="Path 40" d="M465.657-52.6A60.26,60.26,0,0,0,506.8-74.476a61.08,61.08,0,0,0,4.436-6.272l40.228-49.15A458.491,458.491,0,0,0,417.156-69.543a52.077,52.077,0,0,0,3.85,3.629A60.213,60.213,0,0,0,465.657-52.6Z" transform="translate(-172.589 450.429)" fill="#7f7f7f"/>
      </g>
      <g id="Group_75" data-name="Group 75">
        <path id="Path_37-2" data-name="Path 37" d="M479.124-176.351a69.695,69.695,0,0,1,69.7,69.7,69.693,69.693,0,0,1-69.7,69.691,69.688,69.688,0,0,1-69.691-69.691,69.689,69.689,0,0,1,69.691-69.7" transform="translate(-218.156 176.351)" fill="#7f7f7f"/>
        <path id="Path_38-2" data-name="Path 38" d="M880.435-117.424a62.044,62.044,0,0,0-18-8.453q-9.243-1.377-18.493-2.387A460.56,460.56,0,0,0,674.287-114.74L634.218-65.452a60.8,60.8,0,0,1-4.416,6.286,60.219,60.219,0,0,1-41.07,22.011A60.2,60.2,0,0,1,544.04-50.313c-1.394-1.132-2.615-2.387-3.864-3.616A457.231,457.231,0,0,0,416.54,68.182c-2.077,3.022-4.009,6.1-5.955,9.163-1.152,1.4-2.284,2.836-3.333,4.361a60.5,60.5,0,0,0,99.755,68.477l.276.193c2.415-3.816,4.823-7.632,7.4-11.378C588.435,31.556,713.3-19.78,834.286-4.959c1.994.248,3.975.49,5.955.766a62.111,62.111,0,0,0,56.277-26.745A62.2,62.2,0,0,0,880.435-117.424Z" transform="translate(-293.712 444.683)" fill="#7f7f7f"/>
        <path id="Path_39-2" data-name="Path 39" d="M900.979-70.353a60.424,60.424,0,0,0-8.487-85.037,60.424,60.424,0,0,0-85.037,8.487L660.255,32.935l-179.838-147.2a60.432,60.432,0,0,0-85.037,8.487,60.431,60.431,0,0,0,8.488,85.037L624.533,159.877c.545.573,1.18,1.083,1.746,1.642A458.482,458.482,0,0,1,760.59,101.164Z" transform="translate(-381.713 219.368)" fill="#7f7f7f"/>
        <path id="Path_40-2" data-name="Path 40" d="M465.657-52.6A60.26,60.26,0,0,0,506.8-74.476a61.08,61.08,0,0,0,4.436-6.272l40.228-49.15A458.491,458.491,0,0,0,417.156-69.543a52.077,52.077,0,0,0,3.85,3.629A60.213,60.213,0,0,0,465.657-52.6Z" transform="translate(-172.589 450.429)" fill="#7f7f7f"/>
      </g>
    </g>
  </g>
</svg>
